<svg width="14" height="16" viewBox="0 0 14 16" fill="none" xmlns="http://www.w3.org/2000/svg">
<path fill-rule="evenodd" clip-rule="evenodd" d="M0.333374 3.99984C0.333374 3.63165 0.631851 3.33317 1.00004 3.33317H13C13.3682 3.33317 13.6667 3.63165 13.6667 3.99984C13.6667 4.36803 13.3682 4.6665 13 4.6665H1.00004C0.631851 4.6665 0.333374 4.36803 0.333374 3.99984Z" fill="#B9C2CD"/>
<path fill-rule="evenodd" clip-rule="evenodd" d="M5.66671 1.99984C5.4899 1.99984 5.32033 2.07007 5.1953 2.1951C5.07028 2.32012 5.00004 2.48969 5.00004 2.6665V3.33317H9.00004V2.6665C9.00004 2.48969 8.9298 2.32012 8.80478 2.1951C8.67975 2.07007 8.51019 1.99984 8.33337 1.99984H5.66671ZM10.3334 3.33317V2.6665C10.3334 2.13607 10.1227 1.62736 9.74759 1.25229C9.37251 0.877218 8.86381 0.666504 8.33337 0.666504H5.66671C5.13627 0.666504 4.62757 0.877218 4.25249 1.25229C3.87742 1.62736 3.66671 2.13607 3.66671 2.6665V3.33317H2.33337C1.96518 3.33317 1.66671 3.63165 1.66671 3.99984V13.3332C1.66671 13.8636 1.87742 14.3723 2.25249 14.7474C2.62757 15.1225 3.13627 15.3332 3.66671 15.3332H10.3334C10.8638 15.3332 11.3725 15.1225 11.7476 14.7474C12.1227 14.3723 12.3334 13.8636 12.3334 13.3332V3.99984C12.3334 3.63165 12.0349 3.33317 11.6667 3.33317H10.3334ZM3.00004 4.6665V13.3332C3.00004 13.51 3.07028 13.6795 3.1953 13.8046C3.32033 13.9296 3.4899 13.9998 3.66671 13.9998H10.3334C10.5102 13.9998 10.6798 13.9296 10.8048 13.8046C10.9298 13.6795 11 13.51 11 13.3332V4.6665H3.00004Z" fill="#B9C2CD"/>
<path fill-rule="evenodd" clip-rule="evenodd" d="M5.66671 6.6665C6.0349 6.6665 6.33337 6.96498 6.33337 7.33317V11.3332C6.33337 11.7014 6.0349 11.9998 5.66671 11.9998C5.29852 11.9998 5.00004 11.7014 5.00004 11.3332V7.33317C5.00004 6.96498 5.29852 6.6665 5.66671 6.6665Z" fill="#B9C2CD"/>
<path fill-rule="evenodd" clip-rule="evenodd" d="M8.33337 6.6665C8.70156 6.6665 9.00004 6.96498 9.00004 7.33317V11.3332C9.00004 11.7014 8.70156 11.9998 8.33337 11.9998C7.96518 11.9998 7.66671 11.7014 7.66671 11.3332V7.33317C7.66671 6.96498 7.96518 6.6665 8.33337 6.6665Z" fill="#B9C2CD"/>
</svg>
